<?xml version="1.0" encoding="UTF-8"?>
<svg width="196px" height="46px" viewBox="0 0 196 46" version="1.1" xmlns="http://www.w3.org/2000/svg" xmlns:xlink="http://www.w3.org/1999/xlink">
    <!-- Generator: Sketch 63.1 (92452) - https://sketch.com -->
    <title>Logo</title>
    <desc>Created with Sketch.</desc>
    <g id="Homepage" stroke="none" stroke-width="1" fill="none" fill-rule="evenodd">
        <g id="Desktop" transform="translate(-93.000000, -16.000000)">
            <g id="Logo" transform="translate(92.000000, -28.000000)" fill="#FFFFFF">
                <g id="owenmerry">
                    <path d="M9.234375,68 C10.1875,68 11.0859375,67.8359375 11.9296875,67.5078125 C12.7734375,67.1796875 13.5507812,66.734375 14.2617188,66.171875 C14.9726562,65.609375 15.6054688,64.9453125 16.1601562,64.1796875 C16.7148438,63.4140625 17.1835938,62.59375 17.5664062,61.71875 C17.9492188,60.84375 18.2421875,59.9375 18.4453125,59 C18.6484375,58.0625 18.75,57.1328125 18.75,56.2109375 C18.75,54.9453125 18.6367188,53.8085938 18.4101562,52.8007812 C18.1835938,51.7929688 17.84375,50.8359375 17.390625,49.9296875 L17.390625,49.9296875 L17.578125,49.671875 C18.140625,50.046875 18.8125,50.5117188 19.59375,51.0664062 C20.375,51.6210938 21.1679688,52.296875 21.9726562,53.09375 C22.7773438,53.890625 23.5390625,54.6171875 24.2578125,55.2734375 C24.9765625,55.9296875 25.546875,56.5390625 25.96875,57.1015625 L25.96875,57.1015625 L26.4140625,53.796875 C25.5703125,52.734375 24.6601562,51.6171875 23.6835938,50.4453125 C22.7070312,49.2734375 21.6523438,48.3007812 20.5195312,47.5273438 C19.3867188,46.7539062 18.171875,46.1367188 16.875,45.6757812 C15.578125,45.2148438 14.1875,44.984375 12.703125,44.984375 C10.96875,44.984375 9.40625,45.3007812 8.015625,45.9335938 C6.625,46.5664062 5.44921875,47.4335938 4.48828125,48.5351562 C3.52734375,49.6367188 2.7890625,50.9335938 2.2734375,52.4257812 C1.7578125,53.9179688 1.5,55.6953125 1.5,57.7578125 C1.5,59.0078125 1.64453125,60.2421875 1.93359375,61.4609375 C2.22265625,62.6796875 2.6796875,63.7734375 3.3046875,64.7421875 C3.9296875,65.7109375 4.73046875,66.4960938 5.70703125,67.0976562 C6.68359375,67.6992188 7.859375,68 9.234375,68 Z M10.1484375,63.5 C9.5390625,63.5 9.015625,63.3710938 8.578125,63.1132812 C8.140625,62.8554688 7.7890625,62.5117188 7.5234375,62.0820312 C7.2578125,61.6523438 7.0625,61.1484375 6.9375,60.5703125 C6.8125,59.9921875 6.75,59.375 6.75,58.71875 C6.75,57.421875 6.875,56.2578125 7.125,55.2265625 C7.375,54.1953125 7.71875,53.2539062 8.15625,52.4023438 C8.59375,51.5507812 9.1015625,50.8515625 9.6796875,50.3046875 C10.2578125,49.7578125 10.8671875,49.484375 11.5078125,49.484375 C11.9921875,49.484375 12.40625,49.6171875 12.75,49.8828125 C13.09375,50.1484375 13.375,50.5078125 13.59375,50.9609375 C13.8125,51.4140625 13.9765625,51.9492188 14.0859375,52.5664062 C14.1953125,53.1835938 14.25,53.8515625 14.25,54.5703125 C14.25,55.4765625 14.1367188,56.5117188 13.9101562,57.6757812 C13.6835938,58.8398438 13.3828125,59.8320312 13.0078125,60.6523438 C12.6328125,61.4726562 12.1953125,62.1523438 11.6953125,62.6914062 C11.1953125,63.2304688 10.6796875,63.5 10.1484375,63.5 Z M34.3479735,68 C34.9729735,68 35.5979735,67.7890625 36.2229735,67.3671875 C36.8479735,66.9453125 37.465161,66.359375 38.074536,65.609375 C38.683911,64.859375 39.277661,63.9648438 39.855786,62.9257812 C40.433911,61.8867188 40.9885985,60.7421875 41.5198485,59.4921875 C41.5354735,60.4140625 41.7034422,61.1992188 42.0237547,61.8476562 C42.3440672,62.4960938 42.7737547,63.0234375 43.3128172,63.4296875 C43.8518797,63.8359375 44.4768797,64.1328125 45.1878172,64.3203125 C45.8987547,64.5078125 46.652661,64.6015625 47.449536,64.6015625 C48.465161,64.6015625 49.5237547,64.40625 50.6253172,64.015625 C51.7268797,63.625 52.793286,63.1015625 53.824536,62.4453125 L53.824536,62.4453125 L53.824536,56.9375 C53.090161,57.4375 52.371411,57.8828125 51.668286,58.2734375 C51.074536,58.6171875 50.4417235,58.9257812 49.7698485,59.1992188 C49.0979735,59.4726562 48.5042235,59.609375 47.9885985,59.609375 C47.3792235,59.609375 46.855786,59.4375 46.418286,59.09375 C45.980786,58.75 45.6135985,58.375 45.3167235,57.96875 C44.9729735,57.484375 44.6917235,56.9375 44.4729735,56.328125 C44.6760985,55.921875 44.9104735,55.484375 45.1760985,55.015625 C45.3948485,54.609375 45.6878172,53.984375 46.0550047,53.140625 C46.4221922,52.296875 46.777661,51.5625 47.121411,50.9375 C47.137036,50.90625 47.2229735,50.7382812 47.3792235,50.4335938 C47.5354735,50.1289062 47.699536,49.7617188 47.871411,49.3320312 C48.043286,48.9023438 48.2034422,48.4375 48.3518797,47.9375 C48.5003172,47.4375 48.574536,46.96875 48.574536,46.53125 C48.574536,45.953125 48.3010985,45.4804688 47.7542235,45.1132812 C47.2073485,44.7460938 46.4885985,44.5625 45.5979735,44.5625 C44.7385985,44.5625 43.996411,44.7304688 43.371411,45.0664062 C42.746411,45.4023438 42.340161,45.7890625 42.152661,46.2265625 L42.152661,46.2265625 L36.3167235,59.6796875 L35.965161,59.703125 L38.1448485,46.0859375 C38.1448485,45.6328125 37.9612547,45.2695312 37.5940672,44.9960938 C37.2268797,44.7226562 36.699536,44.5859375 36.012036,44.5859375 C35.199536,44.5859375 34.5003172,44.7148438 33.9143797,44.9726562 C33.3284422,45.2304688 32.8010985,45.6171875 32.3323485,46.1328125 C31.8635985,46.6484375 31.4300047,47.296875 31.0315672,48.078125 C30.6331297,48.859375 30.2190672,49.7734375 29.7893797,50.8203125 C29.3596922,51.8671875 28.8518797,53.2070312 28.2659422,54.8398438 C27.6800047,56.4726562 27.043286,58.0859375 26.355786,59.6796875 L26.355786,59.6796875 L26.0510985,59.703125 L27.9260985,46.0859375 C27.9260985,45.6328125 27.7425047,45.2695312 27.3753172,44.9960938 C27.0081297,44.7226562 26.480786,44.5859375 25.793286,44.5859375 L25.793286,44.5859375 L25.230786,44.5390625 C24.652661,44.5390625 24.1565672,44.6796875 23.7425047,44.9609375 C23.3284422,45.2421875 22.9690672,45.5976562 22.6643797,46.0273438 C22.3596922,46.4570312 22.1096922,46.9335938 21.9143797,47.4570312 C21.7190672,47.9804688 21.5628172,48.484375 21.4456297,48.96875 C21.3284422,49.453125 21.2425047,49.8867188 21.1878172,50.2695312 C21.1331297,50.6523438 21.0979735,50.921875 21.0823485,51.078125 C21.0354735,51.703125 20.9573485,52.3945312 20.8479735,53.1523438 C20.7385985,53.9101562 20.6760985,54.4804688 20.6604735,54.8632812 C20.6448485,55.2460938 20.637036,55.6289062 20.637036,56.0117188 L20.637036,56.0117188 L20.637036,57.3359375 C20.637036,60.8515625 20.9221922,63.5078125 21.4925047,65.3046875 C22.0628172,67.1015625 22.9573485,68 24.1760985,68 C24.8948485,68 25.6292235,67.7148438 26.3792235,67.1445312 C27.1292235,66.5742188 27.855786,65.7773438 28.558911,64.7539062 C29.262036,63.7304688 29.9221922,62.5117188 30.5393797,61.0976562 C31.1565672,59.6835938 31.6917235,58.125 32.1448485,56.421875 L32.1448485,56.421875 L32.824536,56.5390625 C32.824536,57.3828125 32.8323485,58.25 32.8479735,59.140625 C32.8635985,60.03125 32.8909422,60.8984375 32.9300047,61.7421875 C32.9690672,62.5859375 33.0237547,63.3867188 33.0940672,64.1445312 C33.1643797,64.9023438 33.2542235,65.5664062 33.3635985,66.1367188 C33.4729735,66.7070312 33.6096922,67.1601562 33.7737547,67.4960938 C33.9378172,67.8320312 34.1292235,68 34.3479735,68 Z M58.9225095,68 C59.8600095,68 60.7857907,67.8945312 61.6998532,67.6835938 C62.6139157,67.4726562 63.4967282,67.1914062 64.3482907,66.8398438 C65.1998532,66.4882812 66.0123532,66.0859375 66.7857907,65.6328125 C67.5592282,65.1796875 68.2818845,64.71875 68.9537595,64.25 C70.5006345,63.15625 71.961572,61.8984375 73.336572,60.4765625 L73.336572,60.4765625 L70.3131345,57.3359375 C69.7037595,57.9296875 68.961572,58.5585938 68.086572,59.2226562 C67.211572,59.8867188 66.2818845,60.5 65.2975095,61.0625 C64.3131345,61.625 63.3014157,62.09375 62.2623532,62.46875 C61.2232907,62.84375 60.2350095,63.03125 59.2975095,63.03125 C59.0006345,63.03125 58.7232907,63 58.4654782,62.9375 C58.2076657,62.875 57.961572,62.765625 57.727197,62.609375 C57.492822,62.453125 57.2623532,62.234375 57.0357907,61.953125 C56.8092282,61.671875 56.5787595,61.3203125 56.3443845,60.8984375 C57.7037595,60.5234375 58.9654782,60 60.1295407,59.328125 C61.2936032,58.65625 62.2975095,57.890625 63.1412595,57.03125 C63.9850095,56.171875 64.7232907,55.140625 65.3561032,53.9375 C65.9889157,52.734375 66.305322,51.6484375 66.305322,50.6796875 C66.305322,49.7890625 66.149072,48.984375 65.836572,48.265625 C65.524072,47.546875 65.0904782,46.9335938 64.5357907,46.4257812 C63.9811032,45.9179688 63.3287595,45.5234375 62.5787595,45.2421875 C61.8287595,44.9609375 61.0162595,44.8203125 60.1412595,44.8203125 C59.0631345,44.8203125 58.0826657,45.0117188 57.1998532,45.3945312 C56.3170407,45.7773438 55.5201657,46.2929688 54.8092282,46.9414062 C54.0982907,47.5898438 53.477197,48.3398438 52.945947,49.1914062 C52.414697,50.0429688 51.9732907,50.9375 51.6217282,51.875 C51.2701657,52.8125 50.930322,53.8867188 50.602197,55.0976562 C50.274072,56.3085938 50.1100095,57.3515625 50.1100095,58.2265625 C50.1100095,59.5234375 50.2936032,60.7617188 50.6607907,61.9414062 C51.0279782,63.1210938 51.5787595,64.1601562 52.3131345,65.0585938 C53.0475095,65.9570312 53.9654782,66.671875 55.0670407,67.203125 C56.1686032,67.734375 57.4537595,68 58.9225095,68 Z M55.805322,56.984375 C55.805322,56.640625 55.820947,56.2265625 55.852197,55.7421875 C55.883447,55.2578125 56.0279782,54.640625 56.2857907,53.890625 C56.5436032,53.140625 56.7701657,52.5117188 56.9654782,52.0039062 C57.1607907,51.4960938 57.4186032,51.0429688 57.7389157,50.6445312 C58.0592282,50.2460938 58.4576657,49.921875 58.9342282,49.671875 C59.4107907,49.421875 59.9850095,49.296875 60.6568845,49.296875 C61.0318845,49.296875 61.3482907,49.5234375 61.6061032,49.9765625 C61.8639157,50.4296875 61.992822,51.0078125 61.992822,51.7109375 C61.992822,52.2109375 61.7193845,52.84375 61.1725095,53.609375 C60.6256345,54.375 60.0670407,54.984375 59.4967282,55.4375 C58.9264157,55.890625 58.3092282,56.2617188 57.6451657,56.5507812 C56.9811032,56.8398438 56.367822,56.984375 55.805322,56.984375 Z M81.7157955,68 C82.5751705,68 83.395483,67.875 84.176733,67.625 C84.473608,67.546875 85.2314205,67.234375 86.4501705,66.6875 C86.9501705,66.46875 88.192358,65.828125 90.176733,64.765625 C91.551733,64.03125 92.286108,63.625 92.379858,63.546875 L92.379858,63.546875 L93.551733,62.65625 L93.5751705,57.40625 C91.8407955,58.5625 90.348608,59.5390625 89.098608,60.3359375 C88.098608,60.9765625 87.5751705,61.2890625 87.5282955,61.2734375 C87.4970455,61.2578125 87.1376705,61.515625 86.4501705,62.046875 C86.3095455,62.1875 85.9814205,62.3515625 85.4657955,62.5390625 C85.1220455,62.6796875 84.8564205,62.75 84.6689205,62.75 C84.1532955,62.75 83.7743892,62.4375 83.5322017,61.8125 C83.2900142,61.1875 83.1689205,60.390625 83.1689205,59.421875 C83.1689205,58.84375 83.2040767,58.2109375 83.2743892,57.5234375 C83.3447017,56.8359375 83.4345455,56.140625 83.5439205,55.4375 C83.6532955,54.734375 83.7743892,53.9375 83.9072017,53.046875 C84.0400142,52.15625 84.161108,51.4296875 84.270483,50.8671875 C84.379858,50.3046875 84.4697017,49.8203125 84.5400142,49.4140625 C84.6103267,49.0078125 84.645483,48.71875 84.645483,48.546875 C84.645483,47.390625 84.4150142,46.484375 83.9540767,45.828125 C83.4931392,45.171875 82.8720455,44.84375 82.0907955,44.84375 C81.3095455,44.84375 80.598608,45 79.957983,45.3125 C79.317358,45.625 78.7470455,46.203125 78.2470455,47.046875 C78.1376705,47.234375 77.973608,47.5234375 77.754858,47.9140625 C77.536108,48.3046875 77.2939205,48.7539062 77.0282955,49.2617188 C76.7626705,49.7695312 76.4775142,50.3007812 76.1728267,50.8554688 C75.8681392,51.4101562 75.582983,52.046875 75.317358,52.765625 C75.051733,53.484375 74.817358,54.0351562 74.614233,54.4179688 C74.411108,54.8007812 74.2626705,55.078125 74.1689205,55.25 L74.1689205,55.25 L73.7001705,55.25 C73.7001705,55.140625 73.723608,54.9257812 73.770483,54.6054688 C73.817358,54.2851562 73.8759517,53.8007812 73.9462642,53.1523438 C74.0165767,52.5039062 74.0907955,51.9257812 74.1689205,51.4179688 C74.2470455,50.9101562 74.3212642,50.4179688 74.3915767,49.9414062 C74.4618892,49.4648438 74.520483,49.0273438 74.567358,48.6289062 C74.614233,48.2304688 74.6376705,47.9140625 74.6376705,47.6796875 C74.6376705,46.8203125 74.473608,46.1328125 74.145483,45.6171875 C73.817358,45.1015625 73.2314205,44.84375 72.3876705,44.84375 C71.5439205,44.84375 70.8759517,45.0859375 70.3837642,45.5703125 C69.8915767,46.0546875 69.5595455,46.65625 69.3876705,47.375 C69.1689205,48.296875 68.942358,49.40625 68.707983,50.703125 C68.473608,52 68.2626705,53.4570312 68.0751705,55.0742188 C67.8876705,56.6914062 67.7314205,58.1757812 67.6064205,59.5273438 C67.4814205,60.8789062 67.4189205,62.0703125 67.4189205,63.1015625 C67.4189205,63.7265625 67.4540767,64.3320312 67.5243892,64.9179688 C67.5947017,65.5039062 67.7353267,66.0273438 67.9462642,66.4882812 C68.1572017,66.9492188 68.457983,67.3164062 68.848608,67.5898438 C69.239233,67.8632812 69.754858,68 70.395483,68 C70.911108,68 71.364233,67.8828125 71.754858,67.6484375 C72.129858,67.4296875 72.4814205,66.9921875 72.8095455,66.3359375 L72.8095455,66.3359375 L78.9501705,54.1484375 L79.3251705,54.1484375 C79.1376705,55.3984375 78.9814205,56.5664062 78.8564205,57.6523438 C78.7314205,58.7382812 78.6689205,59.75 78.6689205,60.6875 C78.6689205,63.078125 78.9618892,64.8945312 79.5478267,66.1367188 C80.1337642,67.3789062 80.8564205,68 81.7157955,68 Z M111.751269,68 C112.891894,68 113.915331,67.8476562 114.821581,67.5429688 C115.727831,67.2382812 116.559863,66.8476562 117.317675,66.3710938 C118.075488,65.8945312 118.794238,65.3632812 119.473925,64.7773438 C120.153613,64.1914062 120.837206,63.625 121.524706,63.078125 L121.524706,63.078125 L121.126269,57.546875 C120.376269,58.453125 119.618456,59.265625 118.852831,59.984375 C118.524706,60.296875 118.180956,60.5976562 117.821581,60.8867188 C117.462206,61.1757812 117.095019,61.4296875 116.720019,61.6484375 C116.345019,61.8671875 115.977831,62.046875 115.618456,62.1875 C115.259081,62.328125 114.915331,62.3984375 114.587206,62.3984375 C114.274706,62.3984375 114.009081,62.1328125 113.790331,61.6015625 C113.571581,61.0703125 113.462206,60.3828125 113.462206,59.5390625 C113.462206,58.4609375 113.516894,57.4414062 113.626269,56.4804688 C113.735644,55.5195312 113.899706,54.453125 114.118456,53.28125 L114.208858,52.785236 C114.382965,51.8056441 114.516894,50.9006696 114.610644,50.0703125 C114.720019,49.1015625 114.774706,48.078125 114.774706,47 C114.774706,46.296875 114.5208,45.7539062 114.012988,45.3710938 C113.505175,44.9882812 112.884081,44.796875 112.149706,44.796875 C111.493456,44.796875 110.938769,45.0117188 110.485644,45.4414062 C110.032519,45.8710938 109.579394,46.3984375 109.126269,47.0234375 C108.657519,47.6640625 108.153613,48.40625 107.61455,49.25 C107.075488,50.09375 106.567675,50.8984375 106.091113,51.6640625 C105.61455,52.4296875 105.173144,53.1992188 104.766894,53.9726562 C104.360644,54.7460938 104.141894,55.15625 104.110644,55.203125 L104.110644,55.203125 L103.852831,54.921875 C103.852831,54.890625 103.860644,54.828125 103.876269,54.734375 C103.923144,54.4375 103.970019,54.2109375 104.016894,54.0546875 C104.298144,53.0859375 104.493456,52.34375 104.602831,51.828125 C104.743456,51.234375 104.868456,50.734375 104.977831,50.328125 C105.071581,49.96875 105.165331,49.4375 105.259081,48.734375 C105.337206,48.1875 105.376269,47.609375 105.376269,47 C105.376269,46.296875 105.141894,45.7539062 104.673144,45.3710938 C104.204394,44.9882812 103.641894,44.796875 102.985644,44.796875 C102.282519,44.796875 101.67705,45.0078125 101.169238,45.4296875 C100.661425,45.8515625 100.180956,46.3828125 99.7278315,47.0234375 C99.2590815,47.6640625 98.766894,48.4023438 98.251269,49.2382812 C97.735644,50.0742188 97.2551752,50.875 96.8098627,51.640625 C96.3645502,52.40625 95.9504877,53.1796875 95.5676752,53.9609375 C95.1848627,54.7421875 94.9778315,55.15625 94.9465815,55.203125 L94.9465815,55.203125 L94.688769,54.921875 C94.923144,53.609375 95.1497065,52.421875 95.3684565,51.359375 C95.3840815,51.328125 95.4465815,50.921875 95.5559565,50.140625 C95.6184565,49.734375 95.6653315,49.3359375 95.6965815,48.9453125 C95.7434565,48.5546875 95.7786127,48.1875 95.8020502,47.84375 C95.8254877,47.5 95.8372065,47.1953125 95.8372065,46.9296875 C95.8372065,46.4453125 95.8215815,46.0625 95.7903315,45.78125 C95.7590815,45.5 95.6614252,45.2851562 95.4973627,45.1367188 C95.3333002,44.9882812 95.0833002,44.8945312 94.7473627,44.8554688 C94.4114252,44.8164062 93.9465815,44.796875 93.3528315,44.796875 C92.9622065,44.796875 92.641894,44.8242188 92.391894,44.8789062 C92.141894,44.9335938 91.9270502,45.0429688 91.7473627,45.2070312 C91.5676752,45.3710938 91.407519,45.6015625 91.266894,45.8984375 C91.126269,46.1953125 90.9778315,46.59375 90.8215815,47.09375 C90.6653315,47.578125 90.4934565,48.203125 90.3059565,48.96875 C90.1184565,49.734375 89.9348627,50.578125 89.7551752,51.5 C89.5754877,52.421875 89.3645502,53.5039062 89.1223627,54.7460938 C88.8801752,55.9882812 88.6965815,57.09375 88.5715815,58.0625 C88.4465815,59.03125 88.345019,59.953125 88.266894,60.828125 C88.188769,61.703125 88.1497065,62.4609375 88.1497065,63.1015625 C88.1497065,63.7265625 88.1848627,64.3320312 88.2551752,64.9179688 C88.3254877,65.5039062 88.4661127,66.0273438 88.6770502,66.4882812 C88.8879877,66.9492188 89.188769,67.3164062 89.579394,67.5898438 C89.970019,67.8632812 90.485644,68 91.126269,68 C91.626269,68 92.0833002,67.8867188 92.4973627,67.6601562 C92.9114252,67.4335938 93.2747065,67 93.5872065,66.359375 C94.6653315,64.1875 95.5442377,62.3789062 96.2239252,60.9335938 C96.9036127,59.4882812 97.4622065,58.3125 97.8997065,57.40625 C98.3372065,56.5 98.6770502,55.8125 98.9192377,55.34375 C99.1614252,54.875 99.376269,54.5234375 99.563769,54.2890625 L99.563769,54.2890625 L99.9153315,54.2890625 C99.6653315,55.7265625 99.454394,57.0703125 99.282519,58.3203125 C99.204394,58.8515625 99.126269,59.3867188 99.048144,59.9257812 C98.970019,60.4648438 98.8997065,60.9765625 98.8372065,61.4609375 C98.7747065,61.9453125 98.7278315,62.375 98.6965815,62.75 C98.6653315,63.125 98.6497065,63.4140625 98.6497065,63.6171875 C98.6497065,64.1015625 98.6770502,64.6015625 98.7317377,65.1171875 C98.7864252,65.6328125 98.8958002,66.1054688 99.0598627,66.5351562 C99.2239252,66.9648438 99.454394,67.3164062 99.751269,67.5898438 C100.048144,67.8632812 100.446581,68 100.946581,68 C101.602831,68 102.180956,67.8867188 102.680956,67.6601562 C103.180956,67.4335938 103.634081,66.9921875 104.040331,66.3359375 L104.040331,66.3359375 L108.798144,54.21875 L109.149706,54.21875 C109.024706,55.34375 108.92705,56.4570312 108.856738,57.5585938 C108.786425,58.6601562 108.751269,59.703125 108.751269,60.6875 C108.751269,61.734375 108.80205,62.703125 108.903613,63.59375 C109.005175,64.484375 109.173144,65.2578125 109.407519,65.9140625 C109.641894,66.5703125 109.950488,67.0820312 110.3333,67.4492188 C110.716113,67.8164062 111.188769,68 111.751269,68 Z M125.87268,68 C126.81018,68 127.735961,67.8945312 128.650024,67.6835938 C129.564086,67.4726562 130.446899,67.1914062 131.298461,66.8398438 C132.150024,66.4882812 132.962524,66.0859375 133.735961,65.6328125 C134.509399,65.1796875 135.232055,64.71875 135.90393,64.25 C137.450805,63.15625 138.911743,61.8984375 140.286743,60.4765625 L140.286743,60.4765625 L137.263305,57.3359375 C136.65393,57.9296875 135.911743,58.5585938 135.036743,59.2226562 C134.161743,59.8867188 133.232055,60.5 132.24768,61.0625 C131.263305,61.625 130.251586,62.09375 129.212524,62.46875 C128.173461,62.84375 127.18518,63.03125 126.24768,63.03125 C125.950805,63.03125 125.673461,63 125.415649,62.9375 C125.157836,62.875 124.911743,62.765625 124.677368,62.609375 C124.442993,62.453125 124.212524,62.234375 123.985961,61.953125 C123.759399,61.671875 123.52893,61.3203125 123.294555,60.8984375 C124.65393,60.5234375 125.915649,60 127.079711,59.328125 C128.243774,58.65625 129.24768,57.890625 130.09143,57.03125 C130.93518,56.171875 131.673461,55.140625 132.306274,53.9375 C132.939086,52.734375 133.255493,51.6484375 133.255493,50.6796875 C133.255493,49.7890625 133.099243,48.984375 132.786743,48.265625 C132.474243,47.546875 132.040649,46.9335938 131.485961,46.4257812 C130.931274,45.9179688 130.27893,45.5234375 129.52893,45.2421875 C128.77893,44.9609375 127.96643,44.8203125 127.09143,44.8203125 C126.013305,44.8203125 125.032836,45.0117188 124.150024,45.3945312 C123.267211,45.7773438 122.470336,46.2929688 121.759399,46.9414062 C121.048461,47.5898438 120.427368,48.3398438 119.896118,49.1914062 C119.364868,50.0429688 118.923461,50.9375 118.571899,51.875 C118.220336,52.8125 117.880493,53.8867188 117.552368,55.0976562 C117.224243,56.3085938 117.06018,57.3515625 117.06018,58.2265625 C117.06018,59.5234375 117.243774,60.7617188 117.610961,61.9414062 C117.978149,63.1210938 118.52893,64.1601562 119.263305,65.0585938 C119.99768,65.9570312 120.915649,66.671875 122.017211,67.203125 C123.118774,67.734375 124.40393,68 125.87268,68 Z M122.755493,56.984375 C122.755493,56.640625 122.771118,56.2265625 122.802368,55.7421875 C122.833618,55.2578125 122.978149,54.640625 123.235961,53.890625 C123.493774,53.140625 123.720336,52.5117188 123.915649,52.0039062 C124.110961,51.4960938 124.368774,51.0429688 124.689086,50.6445312 C125.009399,50.2460938 125.407836,49.921875 125.884399,49.671875 C126.360961,49.421875 126.93518,49.296875 127.607055,49.296875 C127.982055,49.296875 128.298461,49.5234375 128.556274,49.9765625 C128.814086,50.4296875 128.942993,51.0078125 128.942993,51.7109375 C128.942993,52.2109375 128.669555,52.84375 128.12268,53.609375 C127.575805,54.375 127.017211,54.984375 126.446899,55.4375 C125.876586,55.890625 125.259399,56.2617188 124.595336,56.5507812 C123.931274,56.8398438 123.317993,56.984375 122.755493,56.984375 Z M137.345653,68 C137.626903,68 137.884716,67.9492188 138.119091,67.8476562 C138.353466,67.7460938 138.572216,67.5703125 138.775341,67.3203125 C138.978466,67.0703125 139.177685,66.7460938 139.372997,66.3476562 C139.56831,65.9492188 139.775341,65.4453125 139.994091,64.8359375 L139.994091,64.8359375 L144.189403,53.140625 L144.564403,53.140625 C144.689403,54.125 144.853466,55.0976562 145.056591,56.0585938 C145.259716,57.0195312 145.572216,57.8867188 145.994091,58.6601562 C146.415966,59.4335938 146.986278,60.0585938 147.705028,60.5351562 C148.423778,61.0117188 149.369091,61.25 150.540966,61.25 C151.197216,61.25 151.841747,61.1523438 152.47456,60.9570312 C153.107372,60.7617188 153.716747,60.5195312 154.302685,60.2304688 C154.888622,59.9414062 155.439403,59.6328125 155.955028,59.3046875 C156.470653,58.9765625 156.931591,58.6796875 157.337841,58.4140625 L157.337841,58.4140625 L157.689403,52.9296875 C156.986278,53.5078125 156.267528,54.0234375 155.533153,54.4765625 C154.908153,54.8671875 154.220653,55.21875 153.470653,55.53125 C152.720653,55.84375 151.994091,56 151.290966,56 C151.040966,56 150.802685,55.953125 150.576122,55.859375 C150.34956,55.765625 150.146435,55.6054688 149.966747,55.3789062 C149.78706,55.1523438 149.642528,54.8515625 149.533153,54.4765625 C149.423778,54.1015625 149.369091,53.6328125 149.369091,53.0703125 C149.369091,52.7421875 149.408153,52.3320312 149.486278,51.8398438 C149.564403,51.3476562 149.689403,50.71875 149.861278,49.953125 C150.033153,49.1875 150.158153,48.5664062 150.236278,48.0898438 C150.314403,47.6132812 150.353466,47.2421875 150.353466,46.9765625 C150.353466,46.6328125 150.290966,46.3242188 150.165966,46.0507812 C150.040966,45.7773438 149.872997,45.546875 149.66206,45.359375 C149.451122,45.171875 149.205028,45.0273438 148.923778,44.9257812 C148.642528,44.8242188 148.353466,44.7734375 148.056591,44.7734375 C147.197216,44.7734375 146.439403,45.0039062 145.783153,45.4648438 C145.126903,45.9257812 144.540966,46.4921875 144.025341,47.1640625 C143.509716,47.8359375 143.017528,48.6796875 142.548778,49.6953125 C142.080028,50.7109375 141.689403,51.53125 141.376903,52.15625 L141.376903,52.15625 L141.119091,52.15625 C141.087841,51.359375 141.111278,50.4296875 141.189403,49.3671875 C141.267528,48.3046875 141.306591,47.484375 141.306591,46.90625 C141.306591,46.421875 141.294872,46.0390625 141.271435,45.7578125 C141.247997,45.4765625 141.181591,45.2617188 141.072216,45.1132812 C140.962841,44.9648438 140.794872,44.8710938 140.56831,44.8320312 C140.341747,44.7929688 140.025341,44.7734375 139.619091,44.7734375 C139.259716,44.7734375 138.958935,44.7929688 138.716747,44.8320312 C138.47456,44.8710938 138.271435,44.9492188 138.107372,45.0664062 C137.94331,45.1835938 137.798778,45.34375 137.673778,45.546875 C137.548778,45.75 137.423778,46.0234375 137.298778,46.3671875 C137.095653,46.8828125 136.892528,47.5390625 136.689403,48.3359375 C136.486278,49.1328125 136.244091,50.1289062 135.962841,51.3242188 C135.681591,52.5195312 135.451122,53.6445312 135.271435,54.6992188 C135.091747,55.7539062 134.935497,56.7890625 134.802685,57.8046875 C134.669872,58.8203125 134.564403,59.7851562 134.486278,60.6992188 C134.408153,61.6132812 134.369091,62.4140625 134.369091,63.1015625 C134.369091,63.7265625 134.404247,64.3320312 134.47456,64.9179688 C134.544872,65.5039062 134.685497,66.0273438 134.896435,66.4882812 C135.107372,66.9492188 135.408153,67.3164062 135.798778,67.5898438 C136.189403,67.8632812 136.705028,68 137.345653,68 Z M156.295189,68 C156.576439,68 156.834252,67.9492188 157.068627,67.8476562 C157.303002,67.7460938 157.521752,67.5703125 157.724877,67.3203125 C157.928002,67.0703125 158.127221,66.7460938 158.322533,66.3476562 C158.517846,65.9492188 158.724877,65.4453125 158.943627,64.8359375 L158.943627,64.8359375 L163.138939,53.140625 L163.513939,53.140625 C163.638939,54.125 163.803002,55.0976562 164.006127,56.0585938 C164.209252,57.0195312 164.521752,57.8867188 164.943627,58.6601562 C165.365502,59.4335938 165.935814,60.0585938 166.654564,60.5351562 C167.373314,61.0117188 168.318627,61.25 169.490502,61.25 C170.146752,61.25 170.791283,61.1523438 171.424096,60.9570312 C172.056908,60.7617188 172.666283,60.5195312 173.252221,60.2304688 C173.838158,59.9414062 174.388939,59.6328125 174.904564,59.3046875 C175.420189,58.9765625 175.881127,58.6796875 176.287377,58.4140625 L176.287377,58.4140625 L176.638939,52.9296875 C175.935814,53.5078125 175.217064,54.0234375 174.482689,54.4765625 C173.857689,54.8671875 173.170189,55.21875 172.420189,55.53125 C171.670189,55.84375 170.943627,56 170.240502,56 C169.990502,56 169.752221,55.953125 169.525658,55.859375 C169.299096,55.765625 169.095971,55.6054688 168.916283,55.3789062 C168.736596,55.1523438 168.592064,54.8515625 168.482689,54.4765625 C168.373314,54.1015625 168.318627,53.6328125 168.318627,53.0703125 C168.318627,52.7421875 168.357689,52.3320312 168.435814,51.8398438 C168.513939,51.3476562 168.638939,50.71875 168.810814,49.953125 C168.982689,49.1875 169.107689,48.5664062 169.185814,48.0898438 C169.263939,47.6132812 169.303002,47.2421875 169.303002,46.9765625 C169.303002,46.6328125 169.240502,46.3242188 169.115502,46.0507812 C168.990502,45.7773438 168.822533,45.546875 168.611596,45.359375 C168.400658,45.171875 168.154564,45.0273438 167.873314,44.9257812 C167.592064,44.8242188 167.303002,44.7734375 167.006127,44.7734375 C166.146752,44.7734375 165.388939,45.0039062 164.732689,45.4648438 C164.076439,45.9257812 163.490502,46.4921875 162.974877,47.1640625 C162.459252,47.8359375 161.967064,48.6796875 161.498314,49.6953125 C161.029564,50.7109375 160.638939,51.53125 160.326439,52.15625 L160.326439,52.15625 L160.068627,52.15625 C160.037377,51.359375 160.060814,50.4296875 160.138939,49.3671875 C160.217064,48.3046875 160.256127,47.484375 160.256127,46.90625 C160.256127,46.421875 160.244408,46.0390625 160.220971,45.7578125 C160.197533,45.4765625 160.131127,45.2617188 160.021752,45.1132812 C159.912377,44.9648438 159.744408,44.8710938 159.517846,44.8320312 C159.291283,44.7929688 158.974877,44.7734375 158.568627,44.7734375 C158.209252,44.7734375 157.908471,44.7929688 157.666283,44.8320312 C157.424096,44.8710938 157.220971,44.9492188 157.056908,45.0664062 C156.892846,45.1835938 156.748314,45.34375 156.623314,45.546875 C156.498314,45.75 156.373314,46.0234375 156.248314,46.3671875 C156.045189,46.8828125 155.842064,47.5390625 155.638939,48.3359375 C155.435814,49.1328125 155.193627,50.1289062 154.912377,51.3242188 C154.631127,52.5195312 154.400658,53.6445312 154.220971,54.6992188 C154.041283,55.7539062 153.885033,56.7890625 153.752221,57.8046875 C153.619408,58.8203125 153.513939,59.7851562 153.435814,60.6992188 C153.357689,61.6132812 153.318627,62.4140625 153.318627,63.1015625 C153.318627,63.7265625 153.353783,64.3320312 153.424096,64.9179688 C153.494408,65.5039062 153.635033,66.0273438 153.845971,66.4882812 C154.056908,66.9492188 154.357689,67.3164062 154.748314,67.5898438 C155.138939,67.8632812 155.654564,68 156.295189,68 Z M177.025975,89.796875 C178.01035,89.796875 178.9166,89.640625 179.744725,89.328125 C180.57285,89.015625 181.279882,88.6054688 181.865819,88.0976562 C182.451757,87.5898438 182.986913,86.9765625 183.471288,86.2578125 C183.955663,85.5390625 184.346288,84.8164062 184.643163,84.0898438 C184.940038,83.3632812 185.19785,82.5664062 185.4166,81.6992188 C185.63535,80.8320312 185.799413,80.0585938 185.908788,79.3789062 C186.018163,78.6992188 186.111913,77.9921875 186.190038,77.2578125 C186.205663,76.9453125 186.244725,76.5 186.307225,75.921875 C186.51035,73.90625 186.690038,72.5273438 186.846288,71.7851562 C187.002538,71.0429688 187.2916,70.53125 187.713475,70.25 C189.463475,69.078125 190.494725,68.359375 190.807225,68.09375 C191.838475,67.265625 192.408788,66.8125 192.518163,66.734375 C192.861913,66.484375 193.424413,66 194.205663,65.28125 C194.736913,64.78125 195.236913,64.265625 195.705663,63.734375 C196.143163,63.234375 196.502538,62.7421875 196.783788,62.2578125 L196.783788,62.2578125 L195.658788,57.0546875 C194.627538,58.5390625 193.69785,59.7773438 192.869725,60.7695312 C192.0416,61.7617188 191.2916,62.5859375 190.619725,63.2421875 C189.94785,63.8984375 189.338475,64.421875 188.7916,64.8125 C188.244725,65.203125 187.736913,65.53125 187.268163,65.796875 C187.674413,63.140625 188.07285,60.65625 188.463475,58.34375 C188.619725,57.359375 188.82285,56.0585938 189.07285,54.4414062 C189.32285,52.8242188 189.529882,51.5703125 189.693944,50.6796875 C189.858007,49.7890625 190.01035,48.9921875 190.150975,48.2890625 C190.2916,47.5859375 190.408788,47.03125 190.502538,46.625 C190.549413,46.4375 190.57285,46.2734375 190.57285,46.1328125 C190.57285,45.6796875 190.408788,45.3476562 190.080663,45.1367188 C189.752538,44.9257812 189.346288,44.8203125 188.861913,44.8203125 C188.455663,44.8203125 188.025975,44.890625 187.57285,45.03125 C187.119725,45.171875 186.682225,45.3867188 186.26035,45.6757812 C185.838475,45.9648438 185.471288,46.3125 185.158788,46.71875 C184.830663,47.140625 184.611913,47.609375 184.502538,48.125 L184.502538,48.125 L182.627538,56.890625 C182.565038,57.390625 182.428319,58.015625 182.217382,58.765625 C182.006444,59.515625 181.7291,60.2421875 181.38535,60.9453125 C181.0416,61.6484375 180.63535,62.25 180.1666,62.75 C179.69785,63.25 179.174413,63.5 178.596288,63.5 C178.236913,63.5 177.940038,63.4101562 177.705663,63.2304688 C177.471288,63.0507812 177.283788,62.8164062 177.143163,62.5273438 C177.002538,62.2382812 176.904882,61.9101562 176.850194,61.5429688 C176.795507,61.1757812 176.768163,60.796875 176.768163,60.40625 C176.768163,59.65625 176.830663,58.7890625 176.955663,57.8046875 C177.080663,56.8203125 177.287694,55.5039062 177.576757,53.8554688 C177.865819,52.2070312 178.147069,50.8945312 178.420507,49.9179688 C178.693944,48.9414062 178.971288,48.09375 179.252538,47.375 C179.346288,47.140625 179.412694,46.921875 179.451757,46.71875 C179.490819,46.515625 179.51035,46.328125 179.51035,46.15625 C179.51035,45.578125 179.315038,45.1523438 178.924413,44.8789062 C178.533788,44.6054688 178.065038,44.46875 177.518163,44.46875 C176.877538,44.46875 176.221288,44.6523438 175.549413,45.0195312 C174.877538,45.3867188 174.361913,45.921875 174.002538,46.625 C173.518163,47.609375 173.088475,48.5820312 172.713475,49.5429688 C172.338475,50.5039062 171.986913,51.8125 171.658788,53.46875 C171.330663,55.125 171.100194,56.5234375 170.967382,57.6640625 C170.834569,58.8046875 170.768163,60.0546875 170.768163,61.4140625 C170.768163,62.4453125 170.932225,63.3710938 171.26035,64.1914062 C171.588475,65.0117188 172.025975,65.7070312 172.57285,66.2773438 C173.119725,66.8476562 173.748632,67.2851562 174.459569,67.5898438 C175.170507,67.8945312 175.900975,68.046875 176.650975,68.046875 C177.51035,68.046875 178.397069,67.8164062 179.311132,67.3554688 C180.225194,66.8945312 181.1041,66.2890625 181.94785,65.5390625 L181.94785,65.5390625 L181.432225,68.375 C180.44785,69.234375 179.600194,70.0390625 178.889257,70.7890625 C178.178319,71.5390625 177.275975,72.53125 176.182225,73.765625 C175.63535,74.359375 175.111913,75.0234375 174.611913,75.7578125 C174.111913,76.5078125 173.744725,77.0820312 173.51035,77.4804688 C173.275975,77.8789062 172.869725,78.59375 172.2916,79.625 C171.26035,81.46875 170.807225,83.21875 170.932225,84.875 C170.994725,85.75 171.205663,86.5117188 171.565038,87.1601562 C171.924413,87.8085938 172.38535,88.3203125 172.94785,88.6953125 C173.51035,89.0703125 174.131444,89.3476562 174.811132,89.5273438 C175.490819,89.7070312 176.2291,89.796875 177.025975,89.796875 Z M176.51035,85.296875 C175.4791,85.296875 175.221288,84.546875 175.736913,83.046875 C176.361913,81.265625 177.205663,79.515625 178.268163,77.796875 C179.330663,76.078125 180.408788,74.828125 181.502538,74.046875 C181.471288,74.265625 181.420507,74.7695312 181.350194,75.5585938 C181.279882,76.3476562 181.201757,77.015625 181.115819,77.5625 C181.029882,78.109375 180.9166,78.609375 180.775975,79.0625 C180.525975,79.90625 180.318944,80.5820312 180.154882,81.0898438 C179.990819,81.5976562 179.803319,82.1132812 179.592382,82.6367188 C179.381444,83.1601562 179.182225,83.5664062 178.994725,83.8554688 C178.807225,84.1445312 178.588475,84.4101562 178.338475,84.6523438 C178.088475,84.8945312 177.815038,85.0625 177.518163,85.15625 C177.221288,85.25 176.88535,85.296875 176.51035,85.296875 Z" fill-rule="nonzero"></path>
                </g>
            </g>
        </g>
    </g>
</svg>